<svg xmlns="http://www.w3.org/2000/svg" viewBox="0 0 128 128">
  <path d="M48 24 28 16 24 36Z" fill="#46A302" />
  <path d="M48 20 28 12 24 32Z" fill="#58CC02" />
  <path d="m80 24 20-8 4 20Z" fill="#46A302" />
  <path d="m80 20 20-8 4 20Z" fill="#58CC02" />
  <rect x="18" y="20" width="76" height="88" rx="38" fill="#46A302" />
  <rect x="18" y="16" width="76" height="88" rx="38" fill="#58CC02" />
  <path d="M32 34c15-7 33-7 48 0" fill="none" stroke="#A5ED5F" stroke-linecap="round" stroke-width="4" />
  <circle cx="47" cy="55" r="17" fill="#fff" />
  <circle cx="51" cy="55" r="7" fill="#4B4B4B" />
  <circle cx="53" cy="53" r="2.4" fill="#fff" />
  <path d="M58 72h14l-7 12z" fill="#FFC800" />
  <path d="m80 84 21 24" fill="none" stroke="#DFA500" stroke-linecap="round" stroke-width="10" />
  <path d="m80 80 21 24" fill="none" stroke="#FFC800" stroke-linecap="round" stroke-width="10" />
  <circle cx="80" cy="56" r="24" fill="#C9D3DF" />
  <circle cx="80" cy="54" r="24" fill="#fff" />
  <rect x="69" y="60" width="6" height="9" rx="3" fill="#FF4B4B" />
  <rect x="78" y="49" width="6" height="20" rx="3" fill="#FF9600" />
  <rect x="87" y="41" width="6" height="28" rx="3" fill="#58CC02" />
  <path d="M66 47a15 15 0 0 1 24-4" fill="none" stroke="#fff" stroke-linecap="round" stroke-width="4" />
  <circle cx="103" cy="93" r="9" fill="#58CC02" />
</svg>
